<svg width="50" height="38" viewBox="0 0 50 38" fill="none" xmlns="http://www.w3.org/2000/svg">
<g id="Group">
<path id="Vector" fill-rule="evenodd" clip-rule="evenodd" d="M40.8832 0.983215C41.9136 0.983047 42.9302 1.21988 43.8544 1.67539C44.7787 2.1309 45.5857 2.79289 46.2132 3.61016L46.473 3.9752L48.8693 7.56962C49.5119 8.53308 49.8945 9.64629 49.9801 10.8012L49.998 11.2984V25.6178C49.9984 26.7478 49.5716 27.8362 48.8032 28.6648C48.0349 29.4934 46.9817 30.0009 45.8549 30.0857L45.519 30.0969H45.1383C44.6868 31.374 43.8599 32.4849 42.766 33.284C41.6722 34.083 40.3624 34.5328 39.0084 34.5745C37.6544 34.6161 36.3195 34.2476 35.1786 33.5173C34.0377 32.7871 33.1441 31.7291 32.6149 30.4821L32.4626 30.0969H18.2619C17.81 31.3733 16.9831 32.4835 15.8895 33.282C14.7958 34.0804 13.4865 34.5299 12.1331 34.5716C10.7796 34.6132 9.44516 34.245 8.30453 33.5153C7.16389 32.7856 6.27029 31.7283 5.74079 30.4821L5.5885 30.0969H5.20778C4.07778 30.0972 2.9894 29.6704 2.16082 28.9021C1.33224 28.1337 0.824708 27.0806 0.739957 25.9538L0.72876 25.6178V7.70175C0.728664 5.98805 1.38343 4.33909 2.55908 3.09225C3.73473 1.84541 5.34239 1.09495 7.05314 0.994413L7.44729 0.983215H40.8832ZM38.8005 25.6178C38.2065 25.6178 37.6369 25.8538 37.2169 26.2738C36.7969 26.6938 36.5609 27.2634 36.5609 27.8573C36.5609 28.4513 36.7969 29.0209 37.2169 29.4409C37.6369 29.8609 38.2065 30.0969 38.8005 30.0969C39.3944 30.0969 39.964 29.8609 40.384 29.4409C40.804 29.0209 41.04 28.4513 41.04 27.8573C41.04 27.2634 40.804 26.6938 40.384 26.2738C39.964 25.8538 39.3944 25.6178 38.8005 25.6178ZM11.9263 25.6178C11.3324 25.6178 10.7627 25.8538 10.3427 26.2738C9.92275 26.6938 9.68681 27.2634 9.68681 27.8573C9.68681 28.4513 9.92275 29.0209 10.3427 29.4409C10.7627 29.8609 11.3324 30.0969 11.9263 30.0969C12.5203 30.0969 13.0899 29.8609 13.5099 29.4409C13.9299 29.0209 14.1658 28.4513 14.1658 27.8573C14.1658 27.2634 13.9299 26.6938 13.5099 26.2738C13.0899 25.8538 12.5203 25.6178 11.9263 25.6178ZM40.8832 5.46224H38.8005V14.4203H45.519V11.2984C45.5191 10.856 45.3882 10.4235 45.1428 10.0555L42.7465 6.45882C42.5419 6.1522 42.2648 5.90081 41.9398 5.72696C41.6147 5.55311 41.2518 5.46218 40.8832 5.46224ZM11.9263 5.46224H7.44729C6.89876 5.46231 6.36933 5.6637 5.95943 6.0282C5.54952 6.3927 5.28764 6.89496 5.22346 7.43973L5.20778 7.70175V12.1808H11.9263V5.46224ZM23.1239 5.46224H16.4053V12.1808H23.1239V5.46224ZM34.3214 5.46224H27.6029V12.1808H34.3214V5.46224Z" fill="black"/>
</g>
</svg>
