<svg width="44" height="44" viewBox="0 0 44 44" fill="none" xmlns="http://www.w3.org/2000/svg">
<path id="Vector" d="M40.8328 18.0476L37.9022 9.25591C37.4771 7.97589 36.6594 6.8624 35.5653 6.07365C34.4712 5.2849 33.1563 4.86101 31.8076 4.86221H26.3256V0.577759H17.7567V4.86221H12.2747C10.926 4.86101 9.61113 5.2849 8.51703 6.07365C7.42294 6.8624 6.60524 7.97589 6.18011 9.25591L3.24955 18.0476C2.47026 18.3737 1.80475 18.9229 1.33669 19.6261C0.868622 20.3293 0.618895 21.1553 0.618896 22V32.7111C0.618896 34.2921 1.48436 35.6588 2.76112 36.4022V41.28C2.76112 41.8482 2.98682 42.3931 3.38857 42.7948C3.79031 43.1966 4.33519 43.4223 4.90335 43.4223H7.04557C7.61373 43.4223 8.15861 43.1966 8.56035 42.7948C8.9621 42.3931 9.1878 41.8482 9.1878 41.28V36.9956H34.8945V41.28C34.8945 41.8482 35.1202 42.3931 35.5219 42.7948C35.9237 43.1966 36.4686 43.4223 37.0367 43.4223H39.179C39.7471 43.4223 40.292 43.1966 40.6937 42.7948C41.0955 42.3931 41.3212 41.8482 41.3212 41.28V36.4022C41.9711 36.0295 42.5113 35.492 42.8874 34.844C43.2635 34.196 43.4622 33.4604 43.4634 32.7111V22C43.4634 21.1553 43.2137 20.3293 42.7456 19.6261C42.2776 18.9229 41.612 18.3737 40.8328 18.0476ZM12.2747 9.14666H31.8054C32.7287 9.14666 33.547 9.73363 33.8384 10.6119L36.2077 17.7156H7.87461L10.2418 10.6119C10.3839 10.1852 10.6568 9.81402 11.0216 9.55102C11.3865 9.28802 11.825 9.14655 12.2747 9.14666ZM8.11669 30.5689C7.69456 30.5688 7.2766 30.4855 6.88667 30.3238C6.49673 30.1622 6.14245 29.9253 5.84407 29.6267C5.54568 29.3281 5.30903 28.9737 5.14762 28.5836C4.98621 28.1936 4.90321 27.7756 4.90335 27.3534C4.90349 26.9313 4.98677 26.5134 5.14844 26.1234C5.31011 25.7335 5.547 25.3792 5.84558 25.0808C6.14417 24.7824 6.4986 24.5458 6.88865 24.3844C7.27869 24.223 7.69671 24.14 8.11883 24.1401C8.97134 24.1404 9.78883 24.4793 10.3914 25.0823C10.9941 25.6854 11.3324 26.5031 11.3322 27.3556C11.3319 28.2081 10.9929 29.0256 10.3899 29.6282C9.78691 30.2308 8.9692 30.5692 8.11669 30.5689ZM35.9656 30.5689C35.5435 30.5688 35.1255 30.4855 34.7356 30.3238C34.3457 30.1622 33.9914 29.9253 33.693 29.6267C33.3946 29.3281 33.158 28.9737 32.9966 28.5836C32.8351 28.1936 32.7521 27.7756 32.7523 27.3534C32.7524 26.9313 32.8357 26.5134 32.9974 26.1234C33.159 25.7335 33.3959 25.3792 33.6945 25.0808C33.9931 24.7824 34.3475 24.5458 34.7376 24.3844C35.1276 24.223 35.5456 24.14 35.9678 24.1401C36.8203 24.1404 37.6378 24.4793 38.2404 25.0823C38.843 25.6854 39.1814 26.5031 39.1811 27.3556C39.1808 28.2081 38.8419 29.0256 38.2389 29.6282C37.6358 30.2308 36.8181 30.5692 35.9656 30.5689Z" fill="black"/>
</svg>
