<svg width="35" height="42" viewBox="0 0 35 42" fill="none" xmlns="http://www.w3.org/2000/svg">
<g id="Group">
<path id="Vector" d="M9.10062 14.1826L10.1109 17.7556C8.79265 18.1301 7.58678 18.8231 6.59948 19.7734C5.61217 20.7238 4.87373 21.9024 4.4492 23.2053C4.02467 24.5083 3.92708 25.8957 4.16503 27.2452C4.40298 28.5948 4.96917 29.8651 5.81372 30.9443C6.65827 32.0235 7.75526 32.8785 9.00805 33.4338C10.2608 33.9892 11.631 34.228 12.9978 34.1291C14.3646 34.0302 15.6861 33.5967 16.8459 32.8668C18.0057 32.1369 18.9682 31.1329 19.6487 29.9434L19.8381 29.5961L23.1436 31.2861C22.2408 33.0527 20.9164 34.5696 19.2877 35.7025C17.6589 36.8354 15.776 37.5494 13.8056 37.7812C11.8352 38.0131 9.83805 37.7557 7.99082 37.0318C6.1436 36.3079 4.50329 35.1398 3.21503 33.631C1.92677 32.1221 1.03029 30.319 0.60492 28.3811C0.179546 26.4433 0.238394 24.4304 0.776255 22.5207C1.31412 20.611 2.31441 18.8633 3.68861 17.4323C5.06282 16.0013 6.76857 14.9311 8.65493 14.3164L9.10062 14.1826ZM15.1769 0.728333C16.4038 0.727678 17.5967 1.13208 18.5703 1.87876C19.5439 2.62543 20.2437 3.67263 20.5612 4.85778C20.8787 6.04293 20.7961 7.29976 20.3262 8.43315C19.8563 9.56655 19.0254 10.5131 17.9625 11.1259V13.5772L21.1993 14.6562H24.4621C25.2009 14.6562 25.9094 14.9497 26.4318 15.4721C26.9542 15.9945 27.2477 16.703 27.2477 17.4418C27.2477 18.1805 26.9542 18.8891 26.4318 19.4115C25.9094 19.9339 25.2009 20.2273 24.4621 20.2273H20.748C20.4472 20.2273 20.1538 20.1797 19.8678 20.0843L17.9625 19.4492V21.1559C17.9625 21.4021 18.0603 21.6383 18.2344 21.8124C18.4085 21.9866 18.6447 22.0844 18.891 22.0844H22.6051C23.6141 22.0844 24.6093 22.3193 25.5118 22.7706C26.4143 23.2218 27.1994 23.877 27.8048 24.6843L31.4261 29.5126H31.8903C32.6291 29.5126 33.3376 29.8061 33.86 30.3285C34.3824 30.8508 34.6759 31.5594 34.6759 32.2981C34.6759 33.0369 34.3824 33.7454 33.86 34.2678C33.3376 34.7902 32.6291 35.0837 31.8903 35.0837H30.0333C29.6008 35.0837 29.1743 34.983 28.7875 34.7896C28.4007 34.5962 28.0643 34.3154 27.8048 33.9695L23.3479 28.0269C23.2614 27.9116 23.1493 27.818 23.0203 27.7536C22.8914 27.6891 22.7492 27.6555 22.6051 27.6555H18.891C17.1672 27.6555 15.5139 26.9707 14.295 25.7518C13.0761 24.5329 12.3913 22.8797 12.3913 21.1559V11.1259C11.3284 10.5131 10.4974 9.56655 10.0275 8.43315C9.55764 7.29976 9.47503 6.04293 9.79254 4.85778C10.11 3.67263 10.8099 2.62543 11.7835 1.87876C12.7571 1.13208 13.9499 0.727678 15.1769 0.728333Z" fill="white"/>
</g>
</svg>
