<svg width="35" height="42" viewBox="0 0 35 42" fill="none" xmlns="http://www.w3.org/2000/svg">
<g id="Group">
<path id="Vector" d="M8.7786 14.1994L9.78884 17.7724C8.47063 18.1469 7.26476 18.8399 6.27746 19.7902C5.29015 20.7406 4.5517 21.9191 4.12717 23.2221C3.70264 24.5251 3.60506 25.9124 3.84301 27.262C4.08096 28.6116 4.64715 29.8819 5.4917 30.9611C6.33625 32.0403 7.43323 32.8952 8.68603 33.4506C9.93882 34.006 11.309 34.2448 12.6758 34.1459C14.0426 34.047 15.3641 33.6135 16.5239 32.8836C17.6837 32.1537 18.6462 31.1497 19.3266 29.9602L19.5161 29.6129L22.8216 31.3028C21.9188 33.0695 20.5944 34.5864 18.9656 35.7193C17.3369 36.8522 15.454 37.5662 13.4836 37.798C11.5132 38.0299 9.51602 37.7725 7.6688 37.0486C5.82158 36.3247 4.18127 35.1566 2.89301 33.6478C1.60475 32.1389 0.708272 30.3358 0.282899 28.3979C-0.142475 26.46 -0.0836277 24.4472 0.454233 22.5375C0.992094 20.6278 1.99238 18.8801 3.36659 17.4491C4.7408 16.0181 6.44655 14.9479 8.33291 14.3331L8.7786 14.1994ZM14.8549 0.745118C16.0818 0.744463 17.2747 1.14886 18.2482 1.89554C19.2218 2.64222 19.9217 3.68941 20.2392 4.87457C20.5567 6.05972 20.4741 7.31654 20.0042 8.44994C19.5343 9.58334 18.7034 10.5299 17.6404 11.1427V13.594L20.8773 14.673H24.1401C24.8789 14.673 25.5874 14.9665 26.1098 15.4889C26.6322 16.0112 26.9257 16.7198 26.9257 17.4585C26.9257 18.1973 26.6322 18.9059 26.1098 19.4282C25.5874 19.9506 24.8789 20.2441 24.1401 20.2441H20.426C20.1252 20.2441 19.8318 20.1965 19.5458 20.1011L17.6404 19.466V21.1726C17.6404 21.4189 17.7383 21.6551 17.9124 21.8292C18.0865 22.0033 18.3227 22.1012 18.569 22.1012H22.2831C23.2921 22.1012 24.2873 22.3361 25.1898 22.7874C26.0923 23.2386 26.8774 23.8938 27.4828 24.701L31.104 29.5294H31.5683C32.3071 29.5294 33.0156 29.8228 33.538 30.3452C34.0604 30.8676 34.3539 31.5762 34.3539 32.3149C34.3539 33.0537 34.0604 33.7622 33.538 34.2846C33.0156 34.807 32.3071 35.1005 31.5683 35.1005H29.7112C29.2788 35.1005 28.8523 34.9998 28.4655 34.8064C28.0787 34.613 27.7423 34.3322 27.4828 33.9863L23.0259 28.0437C22.9394 27.9284 22.8272 27.8348 22.6983 27.7703C22.5694 27.7059 22.4272 27.6723 22.2831 27.6723H18.569C16.8451 27.6723 15.1919 26.9875 13.973 25.7686C12.7541 24.5497 12.0693 22.8965 12.0693 21.1726V11.1427C11.0063 10.5299 10.1754 9.58334 9.70552 8.44994C9.23562 7.31654 9.15301 6.05972 9.47052 4.87457C9.78802 3.68941 10.4879 2.64222 11.4615 1.89554C12.4351 1.14886 13.6279 0.744463 14.8549 0.745118Z" fill="black"/>
</g>
</svg>
