<svg width="34" height="40" viewBox="0 0 34 40" fill="none" xmlns="http://www.w3.org/2000/svg">
<path id="Vector" d="M0.294314 28.2875V8.60471C0.294314 6.77456 0.769464 5.31527 1.71976 4.22684C2.67006 3.13842 3.92148 2.30967 5.474 1.74059C7.02653 1.17152 8.7966 0.791674 10.7842 0.601062C12.7718 0.410449 14.8002 0.315833 16.8693 0.317215C19.1484 0.317215 21.2983 0.412521 23.3191 0.603133C25.3398 0.793746 27.1009 1.17359 28.6023 1.74266C30.1038 2.31174 31.2861 3.14049 32.1494 4.22891C33.0127 5.31734 33.4443 6.77594 33.4443 8.60471V28.2875C33.4443 30.3249 32.7454 32.0431 31.3476 33.4423C29.9498 34.8416 28.2315 35.5405 26.1927 35.5391L29.3006 38.6469V39.6828H25.1568L21.0131 35.5391H12.7256L8.58181 39.6828H4.43806V38.6469L7.54588 35.5391C5.50853 35.5391 3.79026 34.8402 2.39105 33.4423C0.991845 32.0445 0.292932 30.3262 0.294314 28.2875ZM4.43806 16.8922H14.7974V10.6766H4.43806V16.8922ZM18.9412 16.8922H29.3006V10.6766H18.9412V16.8922ZM9.61775 29.3235C10.5156 29.3235 11.258 29.0299 11.845 28.4429C12.432 27.8559 12.7256 27.1135 12.7256 26.2156C12.7256 25.3178 12.432 24.5754 11.845 23.9884C11.258 23.4014 10.5156 23.1078 9.61775 23.1078C8.71994 23.1078 7.97752 23.4014 7.39049 23.9884C6.80345 24.5754 6.50994 25.3178 6.50994 26.2156C6.50994 27.1135 6.80345 27.8559 7.39049 28.4429C7.97752 29.0299 8.71994 29.3235 9.61775 29.3235ZM24.1209 29.3235C25.0187 29.3235 25.7611 29.0299 26.3481 28.4429C26.9352 27.8559 27.2287 27.1135 27.2287 26.2156C27.2287 25.3178 26.9352 24.5754 26.3481 23.9884C25.7611 23.4014 25.0187 23.1078 24.1209 23.1078C23.2231 23.1078 22.4806 23.4014 21.8936 23.9884C21.3066 24.5754 21.0131 25.3178 21.0131 26.2156C21.0131 27.1135 21.3066 27.8559 21.8936 28.4429C22.4806 29.0299 23.2231 29.3235 24.1209 29.3235Z" fill="black"/>
</svg>
