<svg width="35" height="40" viewBox="0 0 35 40" fill="none" xmlns="http://www.w3.org/2000/svg">
<path id="Vector" d="M0.924929 28.2707V8.5879C0.924929 6.75774 1.40008 5.29845 2.35038 4.21003C3.30068 3.1216 4.55209 2.29285 6.10462 1.72378C7.65714 1.1547 9.42721 0.774859 11.4148 0.584246C13.4024 0.393634 15.4308 0.299018 17.4999 0.300399C19.779 0.300399 21.9289 0.395706 23.9497 0.586318C25.9704 0.776931 27.7315 1.15677 29.233 1.72585C30.7344 2.29492 31.9167 3.12367 32.78 4.2121C33.6433 5.30052 34.0749 6.75912 34.0749 8.5879V28.2707C34.0749 30.3081 33.376 32.0263 31.9782 33.4255C30.5804 34.8247 28.8621 35.5237 26.8234 35.5223L29.9312 38.6301V39.666H25.7874L21.6437 35.5223H13.3562L9.21243 39.666H5.06868V38.6301L8.17649 35.5223C6.13915 35.5223 4.42087 34.8234 3.02167 33.4255C1.62246 32.0277 0.923548 30.3094 0.924929 28.2707ZM5.06868 16.8754H15.4281V10.6598H5.06868V16.8754ZM19.5718 16.8754H29.9312V10.6598H19.5718V16.8754ZM10.2484 29.3066C11.1462 29.3066 11.8886 29.0131 12.4756 28.4261C13.0627 27.8391 13.3562 27.0966 13.3562 26.1988C13.3562 25.301 13.0627 24.5586 12.4756 23.9716C11.8886 23.3845 11.1462 23.091 10.2484 23.091C9.35055 23.091 8.60813 23.3845 8.0211 23.9716C7.43407 24.5586 7.14055 25.301 7.14055 26.1988C7.14055 27.0966 7.43407 27.8391 8.0211 28.4261C8.60813 29.0131 9.35055 29.3066 10.2484 29.3066ZM24.7515 29.3066C25.6493 29.3066 26.3917 29.0131 26.9788 28.4261C27.5658 27.8391 27.8593 27.0966 27.8593 26.1988C27.8593 25.301 27.5658 24.5586 26.9788 23.9716C26.3917 23.3845 25.6493 23.091 24.7515 23.091C23.8537 23.091 23.1113 23.3845 22.5242 23.9716C21.9372 24.5586 21.6437 25.301 21.6437 26.1988C21.6437 27.0966 21.9372 27.8391 22.5242 28.4261C23.1113 29.0131 23.8537 29.3066 24.7515 29.3066Z" fill="white"/>
</svg>
